<?xml version="1.0" encoding="UTF-8"?>
<!DOCTYPE svg PUBLIC "-//W3C//DTD SVG 1.1//EN" "http://www.w3.org/Graphics/SVG/1.1/DTD/svg11.dtd">
<!-- Creator: CorelDRAW -->
<svg xmlns="http://www.w3.org/2000/svg" xml:space="preserve" width="6.82666in" height="6.82666in" style="shape-rendering:geometricPrecision; text-rendering:geometricPrecision; image-rendering:optimizeQuality; fill-rule:evenodd; clip-rule:evenodd"
viewBox="0 0 6.82666 6.82666"
 xmlns:xlink="http://www.w3.org/1999/xlink"
 version="1.1">
 <defs>
  <style type="text/css">
   <![CDATA[
    .fil7 {fill:none}
    .fil6 {fill:#009444}
    .fil5 {fill:#39B54A}
    .fil4 {fill:#8DC63F}
    .fil2 {fill:#8E736D}
    .fil0 {fill:#BFA699}
    .fil3 {fill:#CEB7AB}
    .fil1 {fill:#DDCEC6}
   ]]>
  </style>
 </defs>
 <g id="Layer_x0020_1">
  <metadata id="CorelCorpID_0Corel-Layer"/>
  <g id="Guides">
  </g>
  <g id="Layer_3">
  </g>
  <g id="Layer_4">
  </g>
  <g id="Layer_5">
  </g>
  <g id="Layer_6">
  </g>
  <g id="Layer_7">
  </g>
  <g id="Layer_8">
  </g>
  <g id="Layer_9">
  </g>
  <g id="Layer_10">
  </g>
  <g id="Layer_11">
   <g>
    <g>
     <g>
      <g>
       <polygon id="_573486608" class="fil0" points="5.27083,3.28841 5.73883,3.19258 5.73886,3.19258 5.73886,5.49237 5.73883,5.49237 3.4133,5.85587 1.0878,5.49237 1.0878,3.19258 1.55577,3.28841 3.40367,3.74871 "/>
      </g>
      <g>
       <path id="_573487208" class="fil1" d="M1.55577 2.70311l0 2.42576c1.31757,-0.00520079 1.78007,0.627531 1.85753,0.727 0.0774685,-0.0994685 0.539961,-0.732201 1.85753,-0.727l3.93701e-006 -2.42576c-1.31757,-0.00520079 -1.78006,0.627531 -1.85753,0.727 -0.0774685,-0.0994685 -0.539969,-0.732201 -1.85754,-0.727z"/>
      </g>
      <g>
       <g>
        <path id="_573486800" class="fil2" d="M3.1496 3.78204c-0.00723228,0 -0.0145,-0.00233465 -0.0205984,-0.00713386 -0.129902,-0.102264 -0.281067,-0.189094 -0.449268,-0.258063 -0.216701,-0.0888661 -0.462299,-0.148098 -0.729933,-0.176031 -0.0182992,-0.00190157 -0.0315984,-0.0182992 -0.0297008,-0.0365984 0.00190157,-0.0182992 0.0182992,-0.0315984 0.0365984,-0.0297008 0.273933,0.0285984 0.525701,0.0894016 0.748299,0.180665 0.173933,0.0712992 0.330465,0.161268 0.465232,0.267402 0.0144685,0.0113976 0.0169685,0.0323307 0.00556693,0.0467953 -0.00656299,0.00829921 -0.0163307,0.0126654 -0.0261969,0.0126654z"/>
       </g>
       <g>
        <path id="_573486104" class="fil2" d="M3.1496 4.22311c-0.00723228,0 -0.0145,-0.00233465 -0.0205984,-0.00713386 -0.129902,-0.102268 -0.281067,-0.189098 -0.449268,-0.258067 -0.216701,-0.0888661 -0.462299,-0.148098 -0.729933,-0.176031 -0.0182992,-0.00190157 -0.0315984,-0.0182992 -0.0297008,-0.0365984 0.00189764,-0.0182992 0.0182992,-0.0315945 0.0365984,-0.0296969 0.273933,0.0285945 0.525701,0.0893976 0.748299,0.180661 0.173933,0.0713346 0.330465,0.161268 0.465232,0.267402 0.0144685,0.0114016 0.0169685,0.0323346 0.00556693,0.0467992 -0.00656299,0.00829528 -0.0163307,0.0126654 -0.0261969,0.0126654z"/>
       </g>
       <g>
        <path id="_573486296" class="fil2" d="M3.1496 4.66421c-0.00723228,0 -0.0145,-0.00233465 -0.0205984,-0.00713386 -0.129902,-0.102268 -0.281067,-0.189098 -0.449268,-0.258067 -0.216701,-0.0888661 -0.462299,-0.148098 -0.729933,-0.176031 -0.0182992,-0.00190157 -0.0315984,-0.0182992 -0.0297008,-0.0365984 0.00189764,-0.0182992 0.0182992,-0.0315984 0.0365984,-0.0297008 0.273933,0.0285984 0.525701,0.0894016 0.748299,0.180665 0.173933,0.0713346 0.330465,0.161268 0.465232,0.267402 0.0144685,0.0114016 0.0169685,0.0323346 0.00556693,0.0467992 -0.00656299,0.00829921 -0.0163307,0.0126654 -0.0261969,0.0126654z"/>
       </g>
       <g>
        <path id="_573486176" class="fil2" d="M3.1496 5.10528c-0.00723228,0 -0.0145,-0.00233465 -0.0205984,-0.00713386 -0.129902,-0.102268 -0.281067,-0.189098 -0.449268,-0.258067 -0.216701,-0.0888661 -0.462299,-0.148098 -0.729933,-0.176031 -0.0182992,-0.00190157 -0.0315984,-0.0182992 -0.0297008,-0.0365984 0.00189764,-0.0182992 0.0182992,-0.0315984 0.0365984,-0.0297008 0.273933,0.0285984 0.525701,0.0894016 0.748299,0.180665 0.173933,0.0712992 0.330465,0.161268 0.465232,0.267402 0.0144685,0.0114016 0.0169685,0.0323346 0.00556693,0.0467992 -0.00656299,0.00829921 -0.0163307,0.0126654 -0.0261969,0.0126654z"/>
       </g>
       <g>
        <path id="_573485240" class="fil2" d="M3.7439 3.78204c-0.00986614,0 -0.0196339,-0.00436614 -0.0262008,-0.0127008 -0.0114016,-0.0144685 -0.00890157,-0.0354331 0.00556693,-0.0467953 0.134768,-0.106098 0.291299,-0.196067 0.465232,-0.267402 0.222598,-0.0912677 0.474366,-0.152031 0.748299,-0.180665 0.0182992,-0.00190157 0.0347008,0.0113661 0.0365984,0.0297008 0.00190157,0.0182992 -0.0113661,0.0347008 -0.0297008,0.0365984 -0.267634,0.0279685 -0.513232,0.0872008 -0.729933,0.176031 -0.168201,0.0689685 -0.319366,0.155799 -0.449268,0.258063 -0.00609449,0.00483465 -0.0133622,0.00716929 -0.0205945,0.00716929z"/>
       </g>
       <g>
        <path id="_573485600" class="fil2" d="M3.7439 4.22311c-0.00986614,0 -0.0196339,-0.00436614 -0.0262008,-0.0127008 -0.0114016,-0.0144685 -0.00890157,-0.0354331 0.00556693,-0.0467992 0.134768,-0.106098 0.291299,-0.196067 0.465232,-0.267402 0.222598,-0.0912677 0.474366,-0.152031 0.748299,-0.180661 0.0182992,-0.00193307 0.0347008,0.0113622 0.0365984,0.0296969 0.00190157,0.0182992 -0.0113661,0.0347008 -0.0297008,0.0365984 -0.267634,0.0279685 -0.513232,0.0872008 -0.729933,0.176031 -0.168201,0.0689685 -0.319366,0.155799 -0.449268,0.258067 -0.00609449,0.00483465 -0.0133622,0.00716929 -0.0205945,0.00716929z"/>
       </g>
       <g>
        <path id="_573485648" class="fil2" d="M3.7439 4.66421c-0.00986614,0 -0.0196339,-0.00436614 -0.0262008,-0.0127008 -0.0114016,-0.0144685 -0.00890157,-0.0354331 0.00556693,-0.0467992 0.134768,-0.106098 0.291299,-0.196067 0.465232,-0.267402 0.222598,-0.0912677 0.474366,-0.152031 0.748299,-0.180665 0.0182992,-0.00193307 0.0347008,0.0113661 0.0365984,0.0297008 0.00190157,0.0182992 -0.0113661,0.0347008 -0.0297008,0.0365984 -0.267634,0.0279685 -0.513232,0.0872008 -0.729933,0.176031 -0.168201,0.0689685 -0.319366,0.155799 -0.449268,0.258067 -0.00609449,0.00483465 -0.0133622,0.00716929 -0.0205945,0.00716929z"/>
       </g>
       <g>
        <path id="_573484352" class="fil2" d="M3.7439 5.10528c-0.00986614,0 -0.0196339,-0.00436614 -0.0262008,-0.0127008 -0.0114016,-0.0144685 -0.00890157,-0.0354331 0.00556693,-0.0467992 0.134768,-0.106098 0.291299,-0.196067 0.465232,-0.267402 0.222598,-0.0912677 0.474366,-0.152031 0.748299,-0.180665 0.0182992,-0.00193307 0.0347008,0.0113661 0.0365984,0.0297008 0.00190157,0.0182992 -0.0113661,0.0347008 -0.0297008,0.0365984 -0.267634,0.0279685 -0.513232,0.0872008 -0.729933,0.176031 -0.168201,0.0689685 -0.319366,0.155799 -0.449268,0.258067 -0.00609449,0.00483465 -0.0133622,0.00716929 -0.0205945,0.00716929z"/>
       </g>
      </g>
      <g>
       <path id="_573484616" class="fil3" d="M3.3437 5.77094c0.0345315,0.0389016 0.0570984,0.0688661 0.0695984,0.0849331 0.0125,-0.0160669 0.0350669,-0.046 0.0695984,-0.0849331l3.93701e-006 -2.42576c-0.0345315,0.0389016 -0.0570984,0.0688661 -0.0695984,0.0849331 -0.0125,-0.0160669 -0.0350669,-0.046 -0.0695984,-0.0849331l-3.93701e-006 2.42576z"/>
      </g>
     </g>
    </g>
    <g>
     <g>
      <g>
       <g>
        <g>
         <path id="_573483824" class="fil4" d="M3.4704 2.32748c-0.0173661,0 -0.0335,-0.0110669 -0.0391339,-0.0285 -0.0295,-0.0912992 -0.0354016,-0.184567 -0.0175,-0.277268 0.0169331,-0.0877323 0.0552008,-0.174933 0.113732,-0.259165 0.109665,-0.157835 0.290862,-0.304965 0.524063,-0.425465 0.0201654,-0.0104331 0.045,-0.0025315 0.0554331,0.0176654 0.0104331,0.0201654 0.0025315,0.045 -0.0176654,0.0554331 -0.221335,0.114366 -0.392264,0.252465 -0.494295,0.399335 -0.106665,0.153531 -0.135433,0.309701 -0.0855,0.464201 0.007,0.0215984 -0.00486614,0.0447992 -0.0265,0.0517992 -0.00416929,0.00129921 -0.00843307,0.00196457 -0.0126339,0.00196457z"/>
        </g>
       </g>
      </g>
     </g>
     <g>
      <g>
       <g>
        <g>
         <path id="_573483608" class="fil4" d="M3.55124 2.59098c-0.0178346,0 -0.0342677,-0.0117008 -0.0395,-0.0297008l-0.00593307 -0.0205315c-0.0907008,-0.314165 -0.193531,-0.670299 -0.622,-0.868067 -0.0206339,-0.0095315 -0.0296339,-0.0339685 -0.0200984,-0.0545984 0.0095315,-0.0206339 0.0339685,-0.0296339 0.0545984,-0.0200984 0.206335,0.0952323 0.361098,0.233335 0.473201,0.422165 0.0966654,0.162902 0.148031,0.340799 0.193366,0.497768l0.00593307 0.0205c0.00629921,0.0218346 -0.00626772,0.0446339 -0.0280669,0.0509331 -0.00387008,0.00109843 -0.00773622,0.00162992 -0.0115,0.00162992z"/>
        </g>
       </g>
      </g>
     </g>
     <g>
      <g>
       <g>
        <g>
         <path id="_573482936" class="fil5" d="M3.7099 1.61591c0.332299,0.137 0.481933,0.137031 0.693031,-0.241902l0 0c0.00229921,-0.00409843 0.0222008,-0.0409016 0.0245315,-0.045 0.0183346,-0.0323346 0.0775669,-0.180268 0.245634,-0.299598 -0.381299,-0.124866 -0.988327,-0.101098 -0.963197,0.5865z"/>
        </g>
       </g>
      </g>
     </g>
     <g>
      <g>
       <g>
        <g>
         <path id="_573482408" class="fil5" d="M3.22013 1.85402c-0.337366,0.123902 -0.486902,0.118098 -0.683067,-0.268835l0 0c-0.00213386,-0.00416535 -0.0205984,-0.0417323 -0.0227677,-0.0459016 -0.0170669,-0.0330315 -0.0705,-0.183165 -0.233768,-0.308965 0.385906,-0.109902 0.991504,-0.0624016 0.939602,0.623701z"/>
        </g>
       </g>
      </g>
     </g>
     <g>
      <g>
       <g>
        <g>
         <path id="_573482552" class="fil4" d="M3.41897 2.96194c-0.0219016,0 -0.0401339,-0.0172677 -0.0410669,-0.0393661 -0.00409843,-0.0958661 0.0150669,-0.187335 0.0570315,-0.271902 0.0397008,-0.0800315 0.0998346,-0.153835 0.178701,-0.219366 0.147728,-0.122768 0.361594,-0.216098 0.618461,-0.269902 0.0222323,-0.00466535 0.0440315,0.00959843 0.0487008,0.0318346 0.00466535,0.0222323 -0.00959843,0.0440315 -0.0318346,0.0487008 -0.243768,0.0510315 -0.445299,0.138402 -0.582728,0.252634 -0.143701,0.119433 -0.213031,0.262232 -0.206098,0.424465 0.000968504,0.0227008 -0.0166339,0.0418661 -0.0393346,0.0428661 -0.000665354,3.54331e-005 -0.00126378,3.54331e-005 -0.00183071,3.54331e-005z"/>
        </g>
       </g>
      </g>
     </g>
     <g>
      <g>
       <g>
        <g>
         <path id="_573481568" class="fil5" d="M3.82843 2.33878c0.283701,0.220902 0.427902,0.260965 0.732335,-0.0477992l0 0c0.00329921,-0.00333465 0.0322992,-0.0334685 0.0356339,-0.0367992 0.0262992,-0.0262677 0.122799,-0.153 0.316567,-0.223031 -0.334169,-0.222303 -0.925469,-0.361736 -1.08454,0.30763z"/>
        </g>
       </g>
      </g>
     </g>
     <g>
      <g>
       <g>
        <g>
         <path id="_573481328" class="fil6" d="M4.6021 1.05138l-0.0581654 0.027 -0.0574685 0.0283346 -0.0567008 0.0297677c-0.0187008,0.0102677 -0.0372992,0.0207677 -0.0559331,0.0311339 -0.0185315,0.0105669 -0.0368661,0.0214685 -0.0552992,0.0321654 -0.00463386,0.00263386 -0.00916535,0.0054685 -0.0137008,0.00826772l-0.0136339 0.00836614 -0.0272677 0.0167008 -0.00683465 0.00416535 -0.00673228 0.00429921 -0.0135 0.00856693 -0.027 0.0171654 -0.00673228 0.00429921 -0.00666535 0.00440157 -0.0133346 0.00883465 -0.0266654 0.0176654c-0.0177323,0.0118346 -0.0351339,0.0241654 -0.0525669,0.0364016 -0.00876772,0.0060315 -0.0172992,0.0124331 -0.0259331,0.0187008l-0.0258346 0.0188346c-0.00870079,0.00613386 -0.0172008,0.0125984 -0.0257992,0.0188661 -0.00863386,0.00623228 -0.0172323,0.0125315 -0.0259016,0.0187008 -0.00870079,0.00613386 -0.0172992,0.0124331 -0.0259685,0.0185984 -0.00866535,0.00620079 -0.0174016,0.0122992 -0.0261339,0.0184331 -0.00879921,0.006 -0.0174331,0.0122677 -0.0261654,0.0184016l-0.0262323 0.0183346c-0.0175315,0.0122008 -0.0349016,0.0245669 -0.0525984,0.0365984 -0.0175984,0.0121339 -0.0351339,0.0244016 -0.0529685,0.0362677 -0.0177992,0.0119685 -0.0354685,0.0240669 -0.0537677,0.0354685l-3.14961e-005 0c-0.000799213,0.0005 -0.00186614,0.000267717 -0.00236614,-0.000566929 -0.000433071,-0.000700787 -0.000299213,-0.00156693 0.000232283,-0.00209843 0.0150315,-0.0154331 0.0305669,-0.0302677 0.0461654,-0.0450669 0.0157677,-0.0145669 0.0316654,-0.0290315 0.0478346,-0.0431654 0.00813386,-0.0070315 0.0162677,-0.0140315 0.0244685,-0.0209685 0.00820079,-0.00693307 0.0163661,-0.0139331 0.0247008,-0.0206654 0.0166654,-0.0135 0.0333661,-0.0270669 0.0503346,-0.0402008 0.0085315,-0.0065315 0.0170669,-0.0130315 0.0256654,-0.0194685 0.00859843,-0.00643307 0.0171654,-0.0129016 0.026,-0.0190315 0.0175984,-0.0122992 0.0351654,-0.0246654 0.0531654,-0.0364331l0.0270669 -0.0175c0.0090315,-0.00579921 0.018,-0.0117323 0.0271654,-0.0173661l0.0272992 -0.0170984c0.00909843,-0.00570079 0.0180669,-0.0115984 0.0272992,-0.0170984l0.0274685 -0.0168346 0.0137323 -0.00840157 0.00686614 -0.00420079 0.00693307 -0.00406693 0.0277992 -0.0162992 0.0139016 -0.00813386 0.00693307 -0.00406693 0.0070315 -0.00393307 0.0281654 -0.0155984 0.0140669 -0.00779921c0.00470079,-0.00259843 0.00936614,-0.00523228 0.0141339,-0.00770079 0.0190315,-0.0099685 0.0379685,-0.0200984 0.0570315,-0.0299016 0.0192677,-0.0094685 0.0384685,-0.0190315 0.0577992,-0.0283661l0.0584331 -0.0269685 0.0590669 -0.0254331 0.0598346 -0.0235315c0.000866142,-0.000334646 0.00186614,9.84252e-005 0.00223228,0.000968504 0.000334646,0.000834646 -6.69291e-005,0.00179921 -0.000866142,0.00216535l-5.90551e-005 9.05512e-005z"/>
        </g>
       </g>
      </g>
     </g>
     <g>
      <g>
       <g>
        <g>
         <path id="_573512864" class="fil6" d="M2.3558 1.25198l0.0587008 0.0262323 0.0578661 0.0280984 0.0571339 0.0295984c0.0188661,0.0102008 0.0375984,0.0206654 0.0564331,0.0309685 0.0186339,0.0106654 0.0370669,0.0216339 0.0556339,0.0324685 0.00466535,0.00266535 0.00920079,0.0055315 0.0137677,0.00833465l0.0137008 0.00843307 0.0274331 0.0168661 0.00683465 0.00426772 0.00676772 0.00436614 0.0135 0.00876772 0.0270315 0.0175315 0.00676772 0.00440157 0.00666535 0.0045 0.0133346 0.0090315 0.0267008 0.0180669c0.0089685,0.00593307 0.0176654,0.0122008 0.0265,0.0183346l0.0265 0.0183346c0.00890157,0.0060315 0.0175669,0.0123661 0.0263346,0.0185669l0.0262677 0.0187008c0.0174331,0.0125669 0.0344331,0.0257008 0.0514685,0.0387992 0.0085315,0.0065315 0.0167992,0.0134016 0.0250984,0.0202008 0.00829921,0.00679921 0.0165315,0.0137008 0.0247677,0.0205984 0.0164016,0.0139016 0.0324331,0.0281654 0.0484685,0.0424331 0.0080315,0.00713386 0.0158661,0.0144685 0.0237323,0.0217677 0.00786614,0.00729921 0.0157008,0.0146654 0.0235,0.0220315 0.0155,0.0148661 0.0307323,0.03 0.0458346,0.0452992 0.0149016,0.0155 0.0297677,0.0310315 0.0440669,0.0471339 0.000633858,0.000700787 0.000566929,0.00179921 -0.000133858,0.00243307 -0.000598425,0.000531496 -0.0015,0.000566929 -0.00213386,0.000133858l-3.14961e-005 0c-0.0177677,-0.0122323 -0.0348661,-0.0251339 -0.0520984,-0.0379016 -0.0172677,-0.0127008 -0.0342323,-0.0257323 -0.0512677,-0.0386654 -0.0170984,-0.0128346 -0.0339331,-0.026 -0.0508661,-0.0389685l-0.0253661 -0.0195c-0.00843307,-0.0065315 -0.0167677,-0.0132008 -0.0252992,-0.0195984 -0.00843307,-0.0065 -0.0169016,-0.013 -0.0252677,-0.0195984 -0.00840157,-0.00656693 -0.0166654,-0.0132677 -0.0250984,-0.0197677 -0.00840157,-0.00656693 -0.0167008,-0.0132323 -0.0250315,-0.0198661 -0.00833465,-0.00666535 -0.0165,-0.0135 -0.0249016,-0.0200315l-0.0249685 -0.0199685c-0.00833465,-0.00663386 -0.0165984,-0.0134016 -0.0250669,-0.0198346 -0.0169016,-0.013 -0.0337008,-0.0260984 -0.0508661,-0.0387323l-0.0258346 -0.0188661 -0.0129016 -0.00943307 -0.0064685 -0.00470079 -0.0065315 -0.00459843 -0.0261654 -0.0183661 -0.0130984 -0.00920079 -0.0065315 -0.00459843 -0.00663386 -0.0044685 -0.0264685 -0.0179331 -0.0132323 -0.0089685c-0.00443307,-0.003 -0.00879921,-0.0060315 -0.0132992,-0.00886614 -0.0179331,-0.0115315 -0.0357677,-0.0232323 -0.0537992,-0.0346654 -0.0181654,-0.0112008 -0.0362323,-0.0225315 -0.0544685,-0.0336339l-0.0552992 -0.0323346 -0.0561339 -0.0309016 -0.0569016 -0.0295984 -3.14961e-005 -3.14961e-005c-0.000834646,-0.000433071 -0.00116535,-0.0014685 -0.000732283,-0.00229921 0.000318898,-0.000834646 0.00128346,-0.00116929 0.00211811,-0.00080315z"/>
        </g>
       </g>
      </g>
     </g>
     <g>
      <g>
       <g>
        <g>
         <path id="_573513008" class="fil6" d="M4.84203 2.03245l-0.0632323 0.0105984 -0.0629016 0.0120669 -0.0625315 0.0136654c-0.0207677,0.00493307 -0.0414685,0.0101339 -0.0621654,0.0151654 -0.0206654,0.00529921 -0.0412323,0.0109016 -0.0618346,0.0163346 -0.00516535,0.00133465 -0.0102677,0.00283465 -0.0154016,0.00433465l-0.0153661 0.00443307 -0.0307008 0.00890157 -0.00766535 0.00220079 -0.00763386 0.00233465 -0.0152677 0.00470079 -0.0305669 0.00940157 -0.00763386 0.00233465 -0.00759843 0.0025 -0.0152008 0.0049685 -0.0303661 0.0099685c-0.0202323,0.00670079 -0.0402677,0.014 -0.0603346,0.0211339 -0.0100669,0.0035 -0.0199685,0.00740157 -0.0299685,0.0111339l-0.0299016 0.0112992c-0.0100315,0.00359843 -0.0199016,0.00759843 -0.0298661,0.0113661 -0.0099685,0.00373228 -0.0199331,0.0075 -0.0299331,0.0111654 -0.0100315,0.00359843 -0.0199685,0.00740157 -0.0299685,0.0110669 -0.01,0.00366535 -0.0200315,0.00726772 -0.0300669,0.0108346 -0.0100984,0.00343307 -0.0200669,0.00720079 -0.0300984,0.0107992l-0.0301654 0.0107008c-0.0201339,0.00709843 -0.0401654,0.0144331 -0.0604016,0.0213661 -0.0201654,0.0070315 -0.0403346,0.0142008 -0.0606654,0.0209331 -0.0203346,0.00679921 -0.0405669,0.0137992 -0.0612323,0.0199331l-3.14961e-005 0c-0.000901575,0.000267717 -0.00186614,-0.000232283 -0.00213386,-0.00116535 -0.000232283,-0.000767717 9.84252e-005,-0.00159843 0.000767717,-0.0019685 0.0185669,-0.0109016 0.0375,-0.0210669 0.0564331,-0.0312008 0.0190669,-0.00986614 0.0382323,-0.0195669 0.0575669,-0.0289331 0.00970079,-0.00459843 0.0194016,-0.00920079 0.0291339,-0.0137008 0.00973228,-0.0045315 0.0194685,-0.00906693 0.0292992,-0.0133661 0.0196654,-0.00859843 0.0393346,-0.0172323 0.0591654,-0.0254016 0.0099685,-0.0040315 0.0199016,-0.0080315 0.0299016,-0.0119685 0.01,-0.00390157 0.0199685,-0.00786614 0.0300984,-0.0114685 0.0202323,-0.00720079 0.0404331,-0.0144685 0.0609016,-0.0210315l0.0307323 -0.00970079c0.0102677,-0.00320079 0.0204685,-0.0065315 0.0307677,-0.0095315l0.0308661 -0.00926772c0.0102677,-0.00309843 0.0205,-0.00636614 0.0308346,-0.00923228l0.0309331 -0.00893307 0.0154685 -0.0044685 0.00773228 -0.00223228 0.00776772 -0.00209843 0.0310984 -0.00833465 0.0155315 -0.00416535 0.00776772 -0.00209843 0.00779921 -0.00193307 0.0312992 -0.00756693 0.0156339 -0.00379921c0.00520079,-0.00126772 0.0104331,-0.00256693 0.0156654,-0.00366535 0.0209685,-0.00456693 0.0419016,-0.00929921 0.0629016,-0.0137008 0.0210984,-0.004 0.0421339,-0.00816535 0.0632323,-0.0120315l0.0634685 -0.0105 0.0637008 -0.00883465 0.0639016 -0.00683465c0.000933071,-9.84252e-005 0.00179921,0.000566929 0.00190157,0.0015315 9.84252e-005,0.000901575 -0.000531496,0.00173228 -0.00140157,0.00186614l-3.54331e-005 9.44882e-005z"/>
        </g>
       </g>
      </g>
     </g>
    </g>
   </g>
  </g>
  <g id="Layer_12">
  </g>
  <g id="Layer_13">
  </g>
  <g id="Layer_14">
  </g>
  <g id="Layer_15">
  </g>
  <g id="Layer_16">
  </g>
  <g id="Layer_17">
  </g>
  <g id="Layer_18">
  </g>
  <g id="Layer_19">
  </g>
  <g id="Layer_20">
  </g>
  <g id="Layer_21">
  </g>
  <g id="Layer_22">
  </g>
  <g id="Layer_23">
  </g>
  <g id="Layer_24">
  </g>
  <g id="Layer_25">
  </g>
  <g id="Layer_26">
  </g>
 </g>
 <rect class="fil7" width="6.82666" height="6.82666"/>
</svg>
